<svg id="svg" version="1.1" xmlns="http://www.w3.org/2000/svg" xmlns:xlink="http://www.w3.org/1999/xlink" width="400" height="399.90234375" viewBox="0, 0, 400,399.90234375"><g id="svgg"><path id="path0" d="M189.250 0.190 C 188.242 0.267,185.804 0.447,183.833 0.590 C 180.161 0.855,178.086 1.069,173.417 1.662 C 169.248 2.191,163.478 3.153,160.000 3.898 C 159.313 4.046,158.037 4.318,157.167 4.504 C 156.296 4.690,155.133 4.948,154.583 5.077 C 154.033 5.205,153.096 5.425,152.500 5.564 C 151.512 5.796,150.154 6.148,147.917 6.754 C 147.458 6.879,146.521 7.128,145.833 7.310 C 144.554 7.647,143.795 7.869,141.750 8.501 C 141.108 8.700,140.283 8.942,139.917 9.039 C 139.550 9.136,139.175 9.268,139.083 9.332 C 138.992 9.396,138.542 9.542,138.083 9.656 C 137.625 9.771,137.100 9.925,136.917 9.999 C 136.733 10.073,136.096 10.300,135.500 10.503 C 134.904 10.705,134.180 10.975,133.891 11.102 C 133.603 11.229,133.265 11.334,133.141 11.334 C 133.018 11.335,132.715 11.440,132.470 11.569 C 132.224 11.697,131.774 11.855,131.470 11.920 C 131.165 11.985,130.842 12.092,130.750 12.158 C 130.658 12.223,130.096 12.448,129.500 12.657 C 128.904 12.866,128.192 13.137,127.917 13.259 C 127.642 13.382,126.704 13.758,125.833 14.095 C 124.962 14.432,123.935 14.848,123.551 15.020 C 123.166 15.193,122.805 15.333,122.748 15.333 C 122.692 15.333,122.256 15.512,121.781 15.731 C 121.306 15.950,120.490 16.325,119.969 16.564 C 119.448 16.804,118.973 17.000,118.914 17.000 C 118.855 17.000,118.269 17.252,117.612 17.560 C 116.955 17.869,115.783 18.412,115.009 18.769 C 113.405 19.506,106.910 22.763,105.942 23.314 C 105.589 23.515,104.652 24.027,103.859 24.452 C 103.066 24.877,102.057 25.437,101.618 25.696 C 101.178 25.955,100.747 26.167,100.659 26.167 C 100.572 26.167,100.500 26.228,100.500 26.302 C 100.500 26.377,100.238 26.541,99.917 26.667 C 99.596 26.793,99.333 26.948,99.333 27.012 C 99.333 27.076,99.202 27.171,99.042 27.223 C 98.881 27.276,98.408 27.528,97.990 27.784 C 97.573 28.040,96.673 28.581,95.990 28.986 C 95.308 29.390,94.712 29.774,94.667 29.838 C 94.621 29.903,94.415 30.008,94.208 30.072 C 94.002 30.136,93.833 30.259,93.833 30.345 C 93.833 30.430,93.757 30.500,93.663 30.500 C 93.461 30.500,92.108 31.362,92.028 31.542 C 91.997 31.610,91.907 31.667,91.827 31.667 C 91.625 31.667,85.531 35.780,82.690 37.833 C 81.718 38.536,77.784 41.490,77.417 41.793 C 77.325 41.869,76.537 42.488,75.667 43.169 C 74.796 43.850,73.591 44.822,72.990 45.329 C 72.388 45.835,71.531 46.550,71.084 46.917 C 70.637 47.283,70.004 47.819,69.677 48.107 C 69.351 48.394,68.371 49.252,67.500 50.012 C 65.819 51.480,65.030 52.209,62.100 55.000 C 57.036 59.826,52.073 65.041,47.917 69.904 C 47.458 70.440,47.008 70.963,46.917 71.066 C 46.825 71.169,46.265 71.853,45.672 72.585 C 45.079 73.317,44.549 73.954,44.495 74.000 C 44.377 74.099,39.745 80.078,38.791 81.362 C 38.677 81.516,38.471 81.808,38.333 82.011 C 38.196 82.214,37.928 82.576,37.738 82.815 C 37.548 83.054,36.986 83.848,36.488 84.579 C 35.990 85.309,35.452 86.055,35.292 86.235 C 35.131 86.415,35.000 86.629,35.000 86.710 C 35.000 86.791,34.906 86.955,34.792 87.075 C 34.559 87.318,34.632 87.212,32.916 89.804 C 32.229 90.842,31.667 91.754,31.667 91.832 C 31.667 91.909,31.610 91.997,31.542 92.028 C 31.369 92.105,30.500 93.457,30.500 93.649 C 30.500 93.735,30.438 93.831,30.361 93.861 C 30.285 93.892,29.899 94.479,29.505 95.167 C 29.110 95.854,28.686 96.534,28.563 96.677 C 28.294 96.989,27.572 98.239,27.294 98.875 C 27.184 99.127,27.044 99.333,26.984 99.333 C 26.923 99.333,26.775 99.577,26.655 99.875 C 26.534 100.173,26.389 100.454,26.333 100.500 C 26.276 100.546,25.925 101.146,25.553 101.833 C 24.072 104.571,23.595 105.438,23.304 105.917 C 23.137 106.192,22.922 106.612,22.826 106.850 C 22.730 107.089,22.466 107.614,22.240 108.017 C 21.760 108.873,19.086 114.292,18.424 115.750 C 18.175 116.300,17.759 117.200,17.500 117.750 C 17.242 118.300,16.836 119.217,16.598 119.788 C 16.360 120.358,15.978 121.235,15.750 121.735 C 15.521 122.236,15.333 122.695,15.333 122.756 C 15.333 122.817,15.224 123.103,15.090 123.391 C 14.740 124.146,13.384 127.546,12.888 128.917 C 12.655 129.558,12.366 130.308,12.246 130.583 C 12.125 130.858,11.830 131.683,11.589 132.417 C 11.348 133.150,11.084 133.900,11.001 134.083 C 10.918 134.267,10.651 135.054,10.406 135.833 C 10.161 136.612,9.903 137.400,9.831 137.583 C 9.608 138.159,9.195 139.393,9.024 140.000 C 8.933 140.321,8.697 141.108,8.499 141.750 C 7.855 143.844,7.644 144.566,7.331 145.750 C 7.162 146.392,6.785 147.779,6.493 148.833 C 6.201 149.887,5.825 151.350,5.657 152.083 C 5.489 152.817,5.234 153.904,5.090 154.500 C 4.690 156.156,4.237 158.278,3.400 162.417 C 3.185 163.479,2.931 164.981,2.242 169.250 C -0.951 189.053,-0.741 212.742,2.817 234.167 C 3.148 236.158,3.427 237.628,3.925 240.000 C 4.050 240.596,4.270 241.721,4.414 242.500 C 4.559 243.279,4.743 244.104,4.824 244.333 C 4.905 244.563,5.174 245.650,5.422 246.750 C 5.670 247.850,6.132 249.688,6.449 250.833 C 6.766 251.979,7.133 253.367,7.265 253.917 C 7.397 254.467,7.574 255.104,7.657 255.333 C 7.740 255.563,7.971 256.313,8.169 257.000 C 8.819 259.254,10.357 264.072,10.598 264.609 C 10.727 264.897,10.833 265.191,10.833 265.262 C 10.833 265.412,11.958 268.594,12.184 269.083 C 12.269 269.267,12.553 270.017,12.815 270.750 C 13.282 272.055,14.203 274.422,14.501 275.083 C 14.584 275.267,14.846 275.904,15.083 276.500 C 15.321 277.096,15.582 277.733,15.664 277.917 C 15.745 278.100,16.042 278.761,16.323 279.387 C 16.604 280.012,16.833 280.574,16.833 280.635 C 16.833 280.697,17.088 281.273,17.399 281.915 C 17.711 282.558,18.178 283.571,18.439 284.167 C 19.275 286.082,24.249 295.857,24.672 296.417 C 24.741 296.508,25.064 297.088,25.390 297.705 C 26.282 299.396,28.532 303.220,28.781 303.470 C 28.901 303.591,29.000 303.798,29.000 303.929 C 29.000 304.060,29.075 304.167,29.167 304.167 C 29.258 304.167,29.333 304.238,29.333 304.325 C 29.333 304.465,31.706 308.326,32.053 308.750 C 32.128 308.842,32.650 309.629,33.214 310.500 C 33.778 311.371,34.298 312.108,34.369 312.139 C 34.441 312.169,34.500 312.264,34.500 312.349 C 34.500 312.483,38.349 317.982,38.838 318.545 C 38.935 318.658,39.548 319.462,40.200 320.333 C 40.852 321.204,41.562 322.142,41.778 322.417 C 42.284 323.059,42.332 323.122,42.922 323.917 C 43.194 324.283,43.496 324.668,43.592 324.771 C 43.689 324.874,44.026 325.278,44.342 325.669 C 44.658 326.059,45.179 326.692,45.500 327.075 C 45.821 327.457,46.421 328.175,46.833 328.669 C 47.246 329.164,47.696 329.685,47.833 329.827 C 47.971 329.970,48.247 330.295,48.446 330.550 C 48.911 331.144,50.413 332.866,51.167 333.670 C 51.487 334.012,52.387 334.988,53.167 335.840 C 55.146 338.003,61.374 344.246,63.641 346.338 C 64.681 347.298,65.816 348.346,66.163 348.667 C 67.007 349.447,68.794 351.004,69.310 351.410 C 69.539 351.590,69.919 351.918,70.155 352.139 C 70.390 352.359,71.146 352.997,71.833 353.556 C 72.521 354.114,73.121 354.616,73.167 354.670 C 73.244 354.761,75.476 356.546,76.559 357.383 C 76.821 357.585,77.121 357.825,77.226 357.917 C 77.331 358.008,77.867 358.418,78.417 358.826 C 78.967 359.235,79.492 359.634,79.583 359.713 C 79.675 359.792,80.462 360.379,81.333 361.018 C 82.204 361.658,83.031 362.271,83.170 362.382 C 83.309 362.493,83.759 362.808,84.170 363.083 C 84.581 363.358,84.954 363.623,85.000 363.673 C 85.046 363.722,85.758 364.216,86.583 364.769 C 87.408 365.323,88.421 366.007,88.833 366.290 C 90.322 367.309,93.943 369.627,95.167 370.344 C 95.854 370.747,96.442 371.135,96.472 371.205 C 96.503 371.276,96.604 371.333,96.696 371.333 C 96.789 371.333,97.064 371.475,97.308 371.647 C 97.551 371.820,98.031 372.120,98.375 372.314 C 98.719 372.508,99.281 372.827,99.625 373.024 C 99.969 373.220,100.587 373.568,101.000 373.796 C 101.412 374.025,102.237 374.490,102.833 374.830 C 103.429 375.170,104.029 375.498,104.167 375.559 C 104.304 375.620,104.679 375.828,105.000 376.022 C 105.930 376.584,113.079 380.196,115.000 381.074 C 115.962 381.514,117.200 382.080,117.750 382.331 C 118.777 382.800,119.303 383.033,120.750 383.658 C 121.208 383.856,121.733 384.086,121.917 384.168 C 122.100 384.251,122.737 384.514,123.333 384.753 C 124.307 385.143,124.872 385.380,125.917 385.834 C 126.100 385.914,126.438 386.030,126.667 386.093 C 127.030 386.192,127.697 386.460,128.917 386.999 C 129.100 387.080,129.438 387.196,129.667 387.258 C 129.896 387.320,130.308 387.466,130.583 387.582 C 131.277 387.875,133.654 388.725,135.250 389.249 C 135.983 389.490,136.733 389.754,136.917 389.836 C 137.100 389.918,137.587 390.071,138.000 390.177 C 138.412 390.283,138.900 390.431,139.083 390.506 C 139.470 390.665,141.047 391.152,142.833 391.665 C 143.521 391.863,144.271 392.093,144.500 392.176 C 144.729 392.260,145.817 392.563,146.917 392.850 C 148.017 393.138,149.329 393.483,149.833 393.617 C 150.337 393.751,151.350 394.002,152.083 394.175 C 152.817 394.347,153.904 394.607,154.500 394.753 C 160.560 396.228,169.980 397.854,176.667 398.579 C 177.904 398.713,179.629 398.903,180.500 399.000 C 185.832 399.597,191.113 399.818,200.000 399.818 C 208.929 399.818,214.358 399.588,219.417 398.996 C 220.242 398.899,221.967 398.711,223.250 398.577 C 225.699 398.322,228.072 398.006,230.583 397.600 C 234.389 396.985,236.352 396.650,237.583 396.406 C 238.317 396.260,239.629 396.002,240.500 395.832 C 242.097 395.519,243.414 395.229,245.250 394.785 C 245.800 394.652,246.775 394.424,247.417 394.279 C 248.058 394.134,249.183 393.854,249.917 393.657 C 250.650 393.460,251.775 393.165,252.417 393.002 C 253.058 392.838,254.221 392.514,255.000 392.281 C 255.779 392.048,257.054 391.671,257.833 391.443 C 260.772 390.582,265.720 388.960,266.609 388.566 C 266.897 388.438,267.214 388.333,267.311 388.333 C 267.409 388.333,267.772 388.210,268.119 388.060 C 269.072 387.648,269.357 387.541,270.083 387.325 C 270.450 387.216,270.821 387.060,270.908 386.980 C 270.995 386.899,271.183 386.831,271.325 386.828 C 271.467 386.825,271.883 386.677,272.250 386.500 C 272.617 386.323,272.977 386.175,273.051 386.172 C 273.167 386.167,273.908 385.861,275.083 385.332 C 275.267 385.249,275.904 384.987,276.500 384.750 C 277.096 384.513,277.733 384.251,277.917 384.168 C 279.093 383.638,279.831 383.333,279.936 383.333 C 280.003 383.333,280.513 383.116,281.070 382.850 C 281.627 382.584,282.571 382.144,283.167 381.872 C 283.762 381.600,284.775 381.133,285.417 380.835 C 287.110 380.047,292.402 377.431,292.500 377.333 C 292.571 377.263,293.869 376.569,295.917 375.509 C 296.191 375.366,296.454 375.212,296.500 375.166 C 296.546 375.120,296.808 374.970,297.083 374.833 C 298.794 373.977,308.234 368.280,308.951 367.671 C 309.062 367.577,309.190 367.500,309.236 367.500 C 309.281 367.500,309.753 367.199,310.284 366.832 C 310.815 366.464,311.362 366.089,311.500 365.998 C 314.249 364.183,317.605 361.802,318.787 360.829 C 318.900 360.737,319.462 360.331,320.037 359.927 C 320.613 359.524,321.233 359.055,321.417 358.886 C 321.600 358.717,322.159 358.281,322.659 357.917 C 323.159 357.553,324.059 356.855,324.659 356.367 C 325.259 355.878,326.043 355.239,326.401 354.947 C 326.760 354.655,327.369 354.154,327.755 353.833 C 328.141 353.512,328.597 353.135,328.770 352.994 C 329.415 352.467,332.754 349.567,333.177 349.167 C 333.419 348.938,334.322 348.113,335.183 347.333 C 338.108 344.687,343.258 339.604,345.667 336.988 C 346.446 336.142,347.383 335.139,347.750 334.759 C 348.475 334.009,350.175 332.096,350.939 331.171 C 351.202 330.853,351.529 330.473,351.667 330.327 C 351.804 330.182,352.254 329.664,352.667 329.177 C 353.998 327.606,354.163 327.405,355.075 326.250 C 355.437 325.792,355.812 325.342,355.908 325.250 C 356.004 325.158,356.304 324.783,356.575 324.417 C 356.845 324.050,357.112 323.712,357.169 323.667 C 357.226 323.621,357.605 323.133,358.011 322.583 C 358.418 322.033,358.825 321.492,358.917 321.381 C 359.539 320.625,362.505 316.579,363.716 314.833 C 364.320 313.962,364.875 313.175,364.949 313.083 C 365.381 312.543,367.167 309.801,367.167 309.677 C 367.167 309.595,367.223 309.503,367.292 309.472 C 367.362 309.442,367.754 308.892,368.164 308.250 C 368.574 307.608,368.963 307.044,369.028 306.997 C 369.093 306.949,369.226 306.724,369.325 306.497 C 369.423 306.269,369.842 305.558,370.255 304.917 C 371.769 302.564,373.865 298.965,375.464 295.972 C 375.621 295.677,375.808 295.357,375.880 295.260 C 376.233 294.780,380.669 285.948,381.661 283.750 C 381.867 283.292,382.212 282.542,382.426 282.083 C 382.991 280.873,383.667 279.334,383.667 279.257 C 383.667 279.220,383.892 278.704,384.167 278.110 C 384.442 277.516,384.667 276.981,384.667 276.922 C 384.667 276.863,384.822 276.463,385.012 276.033 C 385.202 275.602,385.456 275.025,385.577 274.750 C 385.698 274.475,385.968 273.762,386.177 273.167 C 386.385 272.571,386.607 272.008,386.669 271.917 C 386.731 271.825,387.100 270.850,387.489 269.750 C 387.878 268.650,388.263 267.600,388.345 267.417 C 388.426 267.233,388.677 266.521,388.903 265.833 C 389.129 265.146,389.533 263.946,389.801 263.167 C 390.381 261.484,391.344 258.410,391.838 256.667 C 392.032 255.979,392.260 255.229,392.343 255.000 C 392.426 254.771,392.730 253.683,393.017 252.583 C 393.304 251.483,393.649 250.171,393.782 249.667 C 393.916 249.162,394.165 248.150,394.337 247.417 C 394.508 246.683,394.766 245.596,394.910 245.000 C 395.362 243.125,395.682 241.593,396.596 236.917 C 397.066 234.508,397.600 231.171,398.262 226.500 C 400.141 213.237,400.524 194.279,399.169 181.583 C 399.071 180.667,398.879 178.829,398.742 177.500 C 398.322 173.433,397.314 166.584,396.608 163.000 C 396.473 162.313,396.207 160.962,396.018 160.000 C 395.668 158.217,395.342 156.706,394.922 154.917 C 394.228 151.958,393.996 150.999,393.776 150.167 C 393.167 147.866,392.336 144.835,392.086 144.000 C 391.934 143.496,391.701 142.671,391.566 142.167 C 391.431 141.662,391.258 141.100,391.182 140.917 C 391.105 140.733,390.467 138.821,389.763 136.667 C 389.060 134.512,388.415 132.600,388.330 132.417 C 388.245 132.233,387.976 131.483,387.733 130.750 C 387.489 130.017,387.224 129.345,387.145 129.258 C 387.065 129.171,386.997 128.984,386.994 128.842 C 386.991 128.700,386.844 128.283,386.667 127.917 C 386.490 127.550,386.342 127.190,386.339 127.116 C 386.333 126.965,385.740 125.570,385.494 125.127 C 385.406 124.968,385.333 124.757,385.333 124.658 C 385.333 124.559,385.146 124.069,384.917 123.568 C 384.688 123.067,384.500 122.627,384.500 122.590 C 384.500 122.553,384.283 122.049,384.019 121.470 C 383.754 120.891,383.488 120.251,383.427 120.049 C 383.366 119.847,383.020 119.076,382.658 118.336 C 382.296 117.595,382.000 116.954,382.000 116.911 C 382.000 116.700,378.568 109.667,377.285 107.250 C 375.559 103.997,374.791 102.581,374.664 102.417 C 374.593 102.325,374.313 101.837,374.040 101.333 C 373.315 99.991,372.944 99.342,372.182 98.088 C 371.807 97.471,371.500 96.905,371.500 96.830 C 371.500 96.756,371.441 96.669,371.369 96.639 C 371.297 96.608,370.882 95.983,370.447 95.250 C 369.703 93.994,367.832 91.028,367.375 90.379 C 367.261 90.216,366.819 89.558,366.393 88.917 C 365.684 87.847,365.164 87.093,363.526 84.750 C 363.206 84.292,362.788 83.692,362.597 83.417 C 362.406 83.142,362.210 82.879,362.161 82.833 C 362.113 82.787,361.479 81.925,360.753 80.917 C 360.027 79.908,359.387 79.046,359.330 79.000 C 359.274 78.954,358.895 78.467,358.489 77.917 C 358.082 77.367,357.670 76.831,357.572 76.727 C 357.475 76.623,356.912 75.917,356.322 75.159 C 355.733 74.401,355.137 73.658,355.000 73.509 C 354.863 73.360,354.303 72.678,353.756 71.994 C 353.209 71.310,352.647 70.632,352.506 70.487 C 352.284 70.259,351.561 69.432,350.362 68.037 C 349.626 67.180,347.873 65.229,347.250 64.572 C 346.883 64.186,345.796 63.031,344.833 62.004 C 342.326 59.331,338.302 55.373,335.509 52.833 C 334.551 51.962,333.526 51.015,333.230 50.727 C 332.935 50.439,332.532 50.091,332.336 49.954 C 332.139 49.816,331.584 49.339,331.102 48.894 C 330.619 48.448,330.042 47.933,329.819 47.750 C 329.596 47.567,328.965 47.042,328.416 46.583 C 327.289 45.641,327.099 45.485,326.797 45.250 C 326.680 45.158,326.123 44.708,325.561 44.250 C 324.998 43.791,324.296 43.229,324.001 43.000 C 323.706 42.771,323.379 42.506,323.274 42.411 C 323.169 42.316,322.783 42.016,322.417 41.744 C 322.050 41.472,321.600 41.112,321.417 40.944 C 321.233 40.775,320.708 40.386,320.250 40.079 C 319.792 39.772,319.267 39.385,319.083 39.219 C 318.900 39.053,318.412 38.692,318.000 38.417 C 317.587 38.142,317.212 37.875,317.167 37.823 C 317.014 37.651,314.164 35.667,314.070 35.667 C 314.018 35.667,313.871 35.561,313.742 35.433 C 313.614 35.304,312.513 34.537,311.296 33.728 C 310.079 32.918,309.046 32.212,309.000 32.158 C 308.954 32.103,308.804 32.010,308.667 31.951 C 308.529 31.892,307.667 31.352,306.750 30.752 C 305.833 30.152,304.971 29.611,304.833 29.551 C 304.696 29.490,304.546 29.398,304.500 29.345 C 304.454 29.293,304.229 29.141,304.000 29.009 C 303.771 28.876,302.324 28.033,300.785 27.134 C 299.245 26.235,297.920 25.500,297.840 25.500 C 297.760 25.500,297.669 25.444,297.639 25.375 C 297.608 25.306,297.246 25.073,296.833 24.856 C 296.421 24.640,295.596 24.198,295.000 23.875 C 291.876 22.180,290.156 21.303,286.667 19.625 C 283.428 18.068,282.605 17.690,280.167 16.639 C 279.754 16.461,279.267 16.248,279.083 16.167 C 277.810 15.599,277.171 15.333,277.083 15.333 C 276.995 15.333,276.206 15.004,275.083 14.498 C 274.529 14.249,272.846 13.588,271.083 12.927 C 270.167 12.583,269.286 12.234,269.127 12.151 C 268.968 12.068,268.754 12.000,268.652 12.000 C 268.550 12.000,268.231 11.896,267.942 11.770 C 267.653 11.643,266.817 11.336,266.083 11.086 C 265.350 10.837,264.262 10.462,263.667 10.252 C 262.415 9.812,258.821 8.683,257.000 8.159 C 256.313 7.961,255.450 7.703,255.083 7.585 C 254.717 7.468,254.154 7.321,253.833 7.260 C 253.512 7.198,253.100 7.083,252.917 7.005 C 252.510 6.830,251.202 6.491,247.750 5.662 C 246.925 5.464,245.800 5.193,245.250 5.060 C 244.041 4.768,241.729 4.266,239.917 3.903 C 239.183 3.755,238.058 3.529,237.417 3.400 C 236.775 3.270,235.350 3.018,234.250 2.839 C 233.150 2.660,231.537 2.396,230.667 2.252 C 229.796 2.107,227.883 1.835,226.417 1.647 C 221.307 0.991,219.978 0.869,210.333 0.172 C 207.535 -0.030,191.960 -0.017,189.250 0.190 M217.076 80.993 L 234.069 97.986 217.076 114.980 L 200.083 131.974 183.042 114.946 L 166.000 97.917 182.958 80.959 C 192.285 71.631,199.954 64.000,200.000 64.000 C 200.046 64.000,207.730 71.647,217.076 80.993 M166.000 165.917 C 184.654 184.571,199.971 199.815,200.037 199.792 C 200.104 199.769,215.426 184.494,234.086 165.849 L 268.013 131.948 268.548 132.470 C 272.836 136.654,370.000 233.874,370.000 233.980 C 370.000 234.061,362.371 241.751,353.046 251.068 L 336.092 268.008 302.087 234.004 L 268.083 200.000 234.083 234.000 L 200.084 268.000 166.058 233.975 L 132.033 199.950 98.063 233.891 C 79.380 252.559,64.054 267.833,64.005 267.833 C 63.956 267.833,56.280 260.197,46.947 250.863 L 29.977 233.893 80.947 182.949 C 108.980 154.929,131.954 132.003,132.000 132.002 C 132.046 132.001,147.346 147.263,166.000 165.917 M149.083 285.000 L 166.083 302.000 149.083 319.000 L 132.084 336.000 115.042 318.959 L 98.000 301.917 114.958 284.959 C 124.285 275.631,131.954 268.000,132.000 268.000 C 132.046 268.000,139.734 275.650,149.083 285.000 " stroke="none" fill="#fcfcfc" fill-rule="evenodd"></path><path id="path1" d="M182.958 80.959 L 166.000 97.917 183.000 114.917 L 200.000 131.916 217.000 114.917 L 234.000 97.917 217.042 80.959 C 207.715 71.631,200.046 64.000,200.000 64.000 C 199.954 64.000,192.285 71.631,182.958 80.959 M81.021 182.938 L 29.978 233.894 46.989 250.905 L 64.000 267.916 98.000 233.917 L 132.000 199.917 165.958 233.875 C 184.636 252.552,199.992 267.833,200.083 267.833 C 200.175 267.833,215.517 252.566,234.177 233.907 L 268.103 199.980 302.076 233.907 C 320.761 252.566,336.094 267.833,336.150 267.833 C 336.205 267.833,343.863 260.221,353.167 250.917 L 370.083 234.000 319.083 183.000 L 268.083 132.000 234.084 166.000 L 200.084 200.000 166.074 165.991 L 132.064 131.981 81.021 182.938 M115.083 285.000 L 98.084 302.000 115.084 319.000 L 132.084 336.000 149.083 319.000 L 166.083 302.000 149.083 285.000 L 132.083 268.000 115.083 285.000 " stroke="none" fill="#040404" fill-rule="evenodd"></path><path id="path2" d="" stroke="none" fill="#bc10080" fill-rule="evenodd"></path></g></svg>